#!OML:ASF H:\Terrain\Patient Classification 1\Walking\liu\liu.ASF
:FULLY-SPECIFIED
:DEGREES
205
root 9.71808 16.4741 6.48234 8.61827 -7.15535 2.11734
lowerback -3.42207 3.55079 -5.14122
upperback -1.04674 4.90195 0.499756
thorax 0.36091 2.46395 3.54566
lowerneck -18.865 -6.39248 -13.7699
upperneck 19.6809 -8.04299 13.2536
head 10.5617 -3.28289 5.86791
rclavicle 4.09496e-014 -5.1684e-015
rhumerus -32.7671 27.3477 -88.8968
rradius 42.7228
rwrist -24.1143
rhand -29.9993 -24.9774
rfingers 7.12502
rthumb -3.31678 -54.9314
lclavicle 4.09496e-014 -5.1684e-015
lhumerus -46.2043 3.46371 82.9828
lradius 24.1622
lwrist 2.88999
lhand -14.4666 -26.2044
lfingers 7.12502
lthumb 11.6792 3.45009
rfemur -10.3928 -1.46609 13.1685
rtibia 69.9906
rfoot 2.5815 -10.905
rtoes -16.8262
lfemur -38.5068 7.62502 -28.0201
ltibia 42.1622
lfoot -12.59 4.1466
ltoes 0.664528
206
root 9.73793 16.5226 6.65084 8.70054 -6.85461 2.23666
lowerback -3.40569 3.26951 -5.20922
upperback -0.999478 4.52914 0.554876
thorax 0.427424 2.27497 3.63371
lowerneck -18.9078 -6.2323 -13.7956
upperneck 19.7899 -7.82516 13.303
head 10.5779 -3.17833 5.93102
rclavicle 5.17337e-014 -2.78299e-015
rhumerus -33.2851 26.803 -88.9736
rradius 42.3742
rwrist -23.7524
rhand -30.0811 -26.428
rfingers 7.12502
rthumb -3.39582 -56.3807
lclavicle 5.17337e-014 -2.78299e-015
lhumerus -45.4589 2.17361 84.3279
lradius 25.3318
lwrist 4.64914
lhand -14.7006 -26.1493
lfingers 7.12502
lthumb 11.4535 3.5178
rfemur -12.3568 -1.59291 13.3365
rtibia 71.3338
rfoot 1.25668 -10.522
rtoes -19.9948
lfemur -37.5732 7.61302 -28.2656
ltibia 41.5552
lfoot -12.6722 3.85807
ltoes 3.09152
207
root 9.75655 16.5665 6.81839 8.70267 -6.48383 2.49888
lowerback -3.39168 3.02531 -5.40318
upperback -0.896404 4.21151 0.611039
thorax 0.539434 2.11106 3.79597
lowerneck -18.6555 -6.07213 -14.1348
upperneck 19.5582 -7.58767 13.6307
head 10.4387 -3.06948 6.14676
rclavicle -6.70898e-015 -1.11319e-014
rhumerus -33.8401 25.9491 -88.7928
rradius 42.2116
rwrist -23.2465
rhand -30.0909 -28.8513
rfingers 7.12502
rthumb -3.40525 -58.8038
lclavicle -6.70898e-015 -1.11319e-014
lhumerus -44.557 1.08981 85.5113
lradius 26.2307
lwrist 5.53393
lhand -15.1607 -26.4334
lfingers 7.12502
lthumb 11.0098 3.25792
rfemur -14.0075 -1.70452 13.2622
rtibia 72.3834
rfoot -0.75027 -9.72933
rtoes -19.1028
lfemur -36.5737 7.62998 -28.6771
ltibia 40.9298
lfoot -13.1624 3.51785
ltoes 2.86379
208
root 9.76941 16.6188 6.99843 8.83141 -6.26422 2.68106
lowerback -3.6718 2.83341 -5.58519
upperback -0.806627 3.98096 0.637527
thorax 0.79846 1.98599 3.93987
lowerneck -18.4661 -5.88095 -13.9283
upperneck 19.3162 -7.35433 13.534
head 10.265 -2.96354 6.10371
rclavicle 1.09829e-014 7.95139e-016
rhumerus -34.2762 25.1454 -88.7076
rradius 41.7109
rwrist -22.8616
rhand -30.284 -28.1002
rfingers 7.12502
rthumb -3.59169 -58.0497
lclavicle 1.09829e-014 7.95139e-016
lhumerus -43.5717 -0.379405 86.6584
lradius 27.0485
lwrist 6.54683
lhand -15.7108 -27.0479
lfingers 7.12502
lthumb 10.4791 2.67094
rfemur -15.8111 -1.76645 13.3572
rtibia 73.116
rfoot -2.00342 -8.8307
rtoes -18.5494
lfemur -35.7449 7.50298 -28.8603
ltibia 40.3449
lfoot -13.6654 3.27695
ltoes 3.1949
209
root 9.78515 16.6589 7.17986 8.86868 -5.7931 2.66762
lowerback -3.87697 2.57864 -5.46409
upperback -0.653647 3.65248 0.668759
thorax 1.1125 1.80896 3.91206
lowerneck -18.542 -5.79001 -13.6583
upperneck 19.2512 -7.2789 13.4931
head 10.2312 -2.91009 6.0509
rclavicle -3.62782e-015 3.18055e-015
rhumerus -34.4925 24.202 -88.5754
rradius 41.0401
rwrist -22.2422
rhand -30.5294 -27.1812
rfingers 7.12502
rthumb -3.8287 -57.1265
lclavicle -3.62782e-015 3.18055e-015
lhumerus -42.3803 -2.35663 87.8949
lradius 27.5946
lwrist 7.8071
lhand -16.5742 -27.7198
lfingers 7.12502
lthumb 9.64621 2.03933
rfemur -17.3923 -2.17613 13.7563
rtibia 73.4614
rfoot -2.98264 -7.94941
rtoes -22.2319
lfemur -34.6964 7.29415 -28.8751
ltibia 39.7199
lfoot -13.9571 3.04566
ltoes 3.83671
210
root 9.79296 16.6985 7.34028 8.79159 -5.14992 2.57134
lowerback -3.59362 2.26344 -5.363
upperback -0.581819 3.21194 0.795321
thorax 1.07346 1.58876 3.95946
lowerneck -18.7361 -5.76031 -13.682
upperneck 19.4028 -7.22862 13.5287
head 10.3163 -2.87809 6.08136
rclavicle 3.83654e-014 1.19271e-015
rhumerus -34.9159 23.5173 -88.5037
rradius 40.4344
rwrist -21.6352
rhand -31.1886 -26.4663
rfingers 7.12502
rthumb -4.46528 -56.3993
lclavicle 3.83654e-014 1.19271e-015
lhumerus -41.1717 -4.01837 88.9214
lradius 28.0249
lwrist 8.57783
lhand -17.0083 -27.6919
lfingers 7.12502
lthumb 9.22738 2.0862
rfemur -18.8737 -2.44481 14.3736
rtibia 73.558
rfoot -4.50622 -7.16452
rtoes -26.082
lfemur -33.557 7.16632 -28.7991
ltibia 39.0651
lfoot -14.3281 2.68003
ltoes 3.79709
211
root 9.79586 16.753 7.49192 8.83174 -4.56677 2.54934
lowerback -3.18334 1.92806 -5.4299
upperback -0.763339 2.73795 0.915972
thorax 0.698069 1.36706 4.08431
lowerneck -18.2759 -5.53651 -13.5194
upperneck 19.4011 -6.96556 13.3128
head 10.1707 -2.78402 6.01477
rclavicle 4.07509e-015 -1.19271e-015
rhumerus -35.8779 22.8856 -88.6363
rradius 39.9233
rwrist -21.1647
rhand -31.6663 -25.2125
rfingers 7.12502
rthumb -4.92655 -55.1353
lclavicle 4.07509e-015 -1.19271e-015
lhumerus -40.2836 -4.93548 89.424
lradius 28.6615
lwrist 8.79948
lhand -16.5593 -27.2193
lfingers 7.12502
lthumb 9.66057 2.53919
rfemur -20.4434 -2.3711 14.8482
rtibia 73.5542
rfoot -5.43891 -7.02663
rtoes -22.0787
lfemur -32.6182 6.90135 -28.7195
ltibia 38.4047
lfoot -14.63 2.36194
ltoes 3.46101
212
root 9.8064 16.8039 7.66942 8.84484 -4.08984 2.46007
lowerback -3.15983 1.62671 -5.31531
upperback -0.853769 2.32817 1.00915
thorax 0.637581 1.16606 4.10241
lowerneck -17.7371 -5.27147 -13.4106
upperneck 19.3762 -6.6939 13.337
head 10.0138 -2.66676 6.0481
rclavicle 2.72832e-014 8.34896e-015
rhumerus -36.7326 22.0492 -88.6054
rradius 39.4656
rwrist -20.6669
rhand -31.4325 -26.8619
rfingers 7.12502
rthumb -4.7008 -56.7897
lclavicle 2.72832e-014 8.34896e-015
lhumerus -39.5029 -5.97304 89.8705
lradius 29.4463
lwrist 9.16261
lhand -16.3529 -27.4574
lfingers 7.12502
lthumb 9.8597 2.2917
rfemur -21.7621 -2.30369 15.2572
rtibia 73.419
rfoot -7.44653 -6.34838
rtoes -21.8169
lfemur -31.606 6.7708 -28.6243
ltibia 37.7173
lfoot -14.8771 2.1513
ltoes 3.12364
213
root 9.8194 16.833 7.85203 8.76673 -3.66598 2.35614
lowerback -3.27267 1.37947 -5.07627
upperback -0.727821 1.99891 1.0495
thorax 0.87386 0.991911 4.0063
lowerneck -17.8825 -5.18201 -13.3568
upperneck 19.4981 -6.62215 13.5239
head 10.0785 -2.60491 6.1246
rclavicle 4.77083e-015 3.97569e-015
rhumerus -37.1463 21.1992 -88.4317
rradius 38.8384
rwrist -19.998
rhand -31.2533 -28.3878
rfingers 7.12502
rthumb -4.52772 -58.3194
lclavicle 4.77083e-015 3.97569e-015
lhumerus -38.4921 -7.31771 90.2969
lradius 30.2594
lwrist 9.68468
lhand -16.5397 -27.6206
lfingers 7.12502
lthumb 9.67948 2.13698
rfemur -22.9744 -2.22102 15.6737
rtibia 73.176
rfoot -9.37412 -5.99696
rtoes -21.756
lfemur -30.5303 6.82202 -28.5564
ltibia 37.0559
lfoot -15.1844 1.8908
ltoes 3.05321
214
root 9.82803 16.8454 8.02223 8.59047 -3.32115 2.42959
lowerback -3.23908 1.2163 -5.0388
upperback -0.500926 1.78294 1.03731
thorax 1.1136 0.872298 3.96854
lowerneck -17.9818 -5.23718 -13.4592
upperneck 19.309 -6.69771 13.7614
head 10.0561 -2.61931 6.21311
rclavicle -4.87022e-015 -6.75868e-015
rhumerus -37.3181 19.9996 -87.9951
rradius 38.2821
rwrist -19.4813
rhand -30.1446 -28.7492
rfingers 7.12502
rthumb -3.45708 -58.7009
lclavicle -4.87022e-015 -6.75868e-015
lhumerus -37.1266 -9.10906 90.7767
lradius 30.7634
lwrist 10.3059
lhand -15.4253 -26.0488
lfingers 7.12502
lthumb 10.7545 3.65592
rfemur -24.2003 -2.10032 15.8863
rtibia 72.8835
rfoot -10.3346 -5.82541
rtoes -19.9856
lfemur -29.2563 6.62647 -28.5529
ltibia 36.4448
lfoot -15.7886 1.7812
ltoes 2.57353
